<svg width="4096" height="2678" viewBox="0 0 4096 2678" fill="none" xmlns="http://www.w3.org/2000/svg">
<path d="M1841.5 0.655065C1829.81 1.66352 1818.54 3.68044 1806.17 6.87389C1787.96 11.58 1778.14 15.2777 1761.28 23.5975C1750.86 28.8078 1720.96 48.5568 1133.02 438.158C1006.64 521.944 796.913 660.859 666.891 746.998C148.665 1090.38 88.4395 1130.38 82.1713 1135.34C72.5996 1142.82 56.5057 1158.7 48.7128 1168.28C8.39316 1217.86 -7.95493 1281.56 3.64967 1343.92C7.63081 1365.18 8.64727 1368.04 38.887 1443.09C45.7481 1460.15 148.157 1715.71 266.49 2010.85C384.823 2305.99 483.25 2550.71 485.114 2554.83C490.196 2565.75 499.598 2581.05 508.069 2592.22C541.358 2636.09 591.757 2666.51 646.138 2675.42C668.415 2679.03 674.26 2679.03 792.678 2674.24C813.515 2673.4 824.358 2672.98 836.301 2672.56C842.823 2672.31 852.395 2671.98 857.477 2671.72C862.644 2671.47 872.301 2671.14 879.077 2670.88C885.853 2670.63 895.595 2670.3 900.677 2670.04C905.844 2669.79 915.5 2669.45 922.277 2669.2C937.269 2668.7 952.686 2668.03 965.053 2667.52C970.22 2667.27 980.638 2666.93 988.347 2666.68C996.055 2666.43 1005.37 2666.09 1009.1 2665.84C1012.83 2665.67 1022.74 2665.25 1031.12 2665C1039.51 2664.75 1049.08 2664.41 1052.3 2664.16C1055.6 2663.99 1065.85 2663.57 1075.17 2663.32C1084.49 2663.07 1093.8 2662.65 1095.92 2662.48C1098.04 2662.31 1108.12 2661.89 1118.37 2661.64C1128.62 2661.3 1137.94 2660.97 1139.12 2660.8C1140.31 2660.63 1150.39 2660.21 1161.57 2659.96C1172.75 2659.62 1182.49 2659.2 1183.17 2659.12C1183.85 2658.95 1193.59 2658.61 1204.77 2658.28C1215.95 2657.94 1225.69 2657.52 1226.37 2657.44C1227.05 2657.27 1236.79 2656.93 1247.97 2656.6C1259.15 2656.26 1268.89 2655.84 1269.57 2655.76C1270.25 2655.59 1279.99 2655.25 1291.17 2654.92C1302.35 2654.58 1312.09 2654.16 1312.77 2654.08C1313.44 2653.99 1323.02 2653.57 1333.94 2653.32C1344.87 2652.98 1355.2 2652.56 1356.81 2652.39C1358.42 2652.23 1367.99 2651.81 1377.99 2651.55C1387.99 2651.3 1397.9 2650.88 1400.01 2650.71C1402.13 2650.55 1411.62 2650.13 1421.19 2649.87C1430.76 2649.62 1440.67 2649.2 1443.21 2649.03C1445.75 2648.87 1455.33 2648.45 1464.39 2648.19C1473.45 2647.94 1483.36 2647.52 1486.41 2647.35C1489.46 2647.18 1498.95 2646.76 1507.59 2646.51C1516.23 2646.26 1526.14 2645.84 1529.61 2645.67C1533.09 2645.5 1542.66 2645.08 1550.79 2644.83C1558.92 2644.58 1568.83 2644.16 1572.81 2643.99C1576.79 2643.82 1586.28 2643.4 1593.99 2643.15C1601.7 2642.9 1611.61 2642.48 1616.01 2642.31C1620.42 2642.06 1630.16 2641.72 1637.61 2641.47C1645.07 2641.22 1654.98 2640.88 1659.63 2640.63C1664.29 2640.38 1674.2 2640.04 1681.66 2639.79C1689.11 2639.54 1698.85 2639.12 1703.26 2638.95C1707.66 2638.7 1717.4 2638.36 1724.86 2638.11C1732.31 2637.86 1742.05 2637.52 1746.46 2637.27C1750.86 2637.02 1760.43 2636.68 1767.63 2636.43C1774.83 2636.18 1784.74 2635.84 1789.66 2635.59C1794.57 2635.34 1804.06 2635 1810.83 2634.75C1817.61 2634.49 1827.52 2634.16 1832.86 2633.91C1842.26 2633.57 1852 2633.15 1876.06 2632.23C1882.32 2631.97 1891.9 2631.64 1897.23 2631.39C1902.57 2631.13 1912.31 2630.8 1918.83 2630.54C1925.35 2630.29 1935.27 2629.96 1940.86 2629.7C1946.45 2629.45 1956.36 2629.12 1962.88 2628.86C1973.98 2628.44 1980.07 2628.19 2006.08 2627.18C2011.67 2626.93 2021.58 2626.6 2028.1 2626.34C2034.62 2626.09 2044.37 2625.75 2049.7 2625.5C2055.04 2625.25 2064.53 2624.91 2070.71 2624.66C2076.81 2624.41 2086.97 2624.07 2093.16 2623.82C2099.25 2623.57 2108.74 2623.23 2114.08 2622.98C2119.41 2622.73 2129.32 2622.39 2136.1 2622.14C2142.88 2621.89 2152.36 2621.55 2157.28 2621.3C2162.19 2621.05 2171.93 2620.71 2178.88 2620.46C2185.91 2620.21 2195.82 2619.87 2200.9 2619.62C2206.07 2619.37 2215.55 2619.03 2222.08 2618.78C2228.6 2618.53 2238.51 2618.19 2244.1 2617.94C2249.69 2617.69 2259.6 2617.35 2266.12 2617.1C2277.22 2616.68 2283.32 2616.43 2309.32 2615.42C2314.91 2615.17 2324.82 2614.83 2331.35 2614.58C2337.87 2614.33 2347.61 2613.99 2352.95 2613.74C2358.28 2613.49 2367.85 2613.15 2374.12 2612.9C2380.39 2612.64 2390.56 2612.31 2396.57 2612.06C2402.67 2611.8 2411.99 2611.47 2417.32 2611.22C2422.66 2610.96 2432.57 2610.63 2439.35 2610.38C2446.12 2610.12 2455.61 2609.79 2460.52 2609.54C2465.43 2609.28 2475.18 2608.95 2482.12 2608.7C2489.15 2608.44 2499.06 2608.11 2504.14 2607.85C2512.95 2607.52 2521.42 2607.18 2548.61 2606.17C2554.88 2605.92 2564.29 2605.59 2569.37 2605.33C2574.53 2605.08 2584.45 2604.75 2591.39 2604.49C2598.42 2604.24 2608.08 2603.9 2612.99 2603.65C2617.9 2603.4 2627.64 2603.06 2634.59 2602.81C2641.62 2602.56 2651.28 2602.22 2656.19 2601.97C2661.1 2601.72 2670.59 2601.38 2677.37 2601.13C2684.14 2600.88 2694.05 2600.54 2699.39 2600.29C2704.73 2600.04 2714.13 2599.7 2720.14 2599.45C2747.76 2598.44 2754.62 2598.11 2763.77 2597.77C2769.1 2597.52 2779.01 2597.18 2785.79 2596.93C2792.57 2596.68 2802.31 2596.34 2807.39 2596.09C2816.2 2595.75 2825.01 2595.42 2851.86 2594.41C2858.13 2594.16 2867.53 2593.82 2872.61 2593.57C2877.78 2593.32 2887.69 2592.98 2894.64 2592.73C2901.67 2592.48 2911.32 2592.14 2916.23 2591.89C2921.15 2591.64 2930.89 2591.3 2937.83 2591.05C2944.87 2590.79 2954.52 2590.46 2959.43 2590.21C2964.35 2589.95 2973.83 2589.62 2980.61 2589.37C2987.39 2589.11 2997.3 2588.78 3002.63 2588.53C3007.97 2588.27 3017.46 2587.94 3023.64 2587.69C3029.74 2587.43 3039.9 2587.1 3046.09 2586.85C3052.19 2586.59 3061.67 2586.26 3067.01 2586C3072.35 2585.75 3082.26 2585.42 3089.03 2585.16C3095.81 2584.91 3105.3 2584.58 3110.21 2584.32C3115.12 2584.07 3124.86 2583.74 3131.81 2583.48C3138.84 2583.23 3149.26 2582.81 3155.1 2582.64C3181.11 2581.63 3186.7 2581.38 3197.88 2580.96C3204.4 2580.71 3214.14 2580.37 3219.48 2580.12C3224.82 2579.87 3234.3 2579.53 3240.49 2579.28C3246.58 2579.03 3256.75 2578.69 3262.93 2578.44C3269.03 2578.19 3278.52 2577.85 3283.86 2577.6C3289.19 2577.35 3299.1 2577.01 3305.88 2576.76C3312.65 2576.51 3322.14 2576.17 3327.05 2575.92C3331.97 2575.67 3341.71 2575.33 3348.65 2575.08C3355.69 2574.83 3365.6 2574.49 3370.68 2574.24C3375.84 2573.99 3385.33 2573.65 3391.85 2573.4C3398.38 2573.15 3408.29 2572.81 3413.88 2572.56C3419.47 2572.31 3429.38 2571.97 3435.9 2571.72C3447 2571.3 3453.1 2571.05 3479.1 2570.04C3484.69 2569.79 3494.6 2569.45 3501.12 2569.2C3507.65 2568.95 3517.39 2568.61 3522.72 2568.36C3528.06 2568.1 3537.63 2567.77 3543.9 2567.52C3550.17 2567.26 3560.33 2566.93 3566.35 2566.68C3572.45 2566.42 3581.76 2566.09 3587.1 2565.84C3592.44 2565.58 3602.35 2565.25 3609.12 2565C3615.9 2564.74 3625.39 2564.41 3630.3 2564.15C3635.21 2563.9 3645.12 2563.57 3652.32 2563.31C3659.52 2563.06 3669.09 2562.73 3673.5 2562.47C3677.9 2562.31 3687.64 2561.89 3695.1 2561.63C3702.55 2561.38 3712.29 2561.05 3716.7 2560.79C3721.1 2560.63 3731.27 2560.21 3739.15 2559.95C3747.11 2559.7 3757.02 2559.28 3761.17 2559.11C3765.4 2558.86 3775.06 2558.52 3782.77 2558.27C3790.48 2558.02 3799.96 2557.6 3803.94 2557.43C3807.93 2557.26 3817.84 2556.84 3825.97 2556.59C3834.1 2556.34 3843.67 2555.92 3847.14 2555.75C3850.62 2555.58 3860.53 2555.16 3869.17 2554.91C3889.58 2554.24 3903.73 2553.06 3915.76 2551.04C3984.71 2539.45 4043.15 2495.92 4074.24 2433.06C4083.89 2413.39 4089.74 2395.57 4093.72 2373.22C4095.08 2365.82 4095.58 2358.51 4095.92 2344.4C4096.26 2327.5 4095.67 2315.4 4090.33 2233.04C4087.03 2182.2 4084.15 2137.91 4083.89 2134.72C4083.64 2131.44 4080.59 2084.21 4077.12 2029.67C4073.65 1975.13 4070.6 1927.82 4070.34 1924.62C4070.09 1921.35 4068.14 1891.85 4066.11 1859.07C4063.99 1826.22 4061.11 1781.84 4059.75 1760.33C4058.4 1738.82 4057.04 1718.39 4056.79 1714.95C4056.54 1711.5 4053.66 1667.05 4050.44 1616.2C4044 1516.62 4037.56 1416.36 4033.5 1353.17C4032.06 1331.4 4029.94 1298.88 4028.84 1280.89C4024.77 1217.28 4023.33 1195.93 4022.91 1189.71C4022.65 1186.27 4016.72 1094.5 4009.78 985.918C4002.83 877.257 3996.9 785.739 3996.65 782.546C3996.39 779.269 3994.87 755.654 3993.26 730.022C3991.65 704.391 3990.13 680.524 3989.87 677.078C3989.62 673.633 3988.26 653.379 3986.91 632.118C3985.55 610.856 3984.03 590.435 3983.52 586.737C3978.44 550.517 3964.12 515.725 3941.76 485.807C3933.29 474.546 3910.76 451.94 3899.58 443.704C3876.2 426.308 3849.94 413.619 3823.43 406.895C3819.02 405.719 3803.61 402.357 3789.12 399.332C3774.72 396.307 3744.99 390.088 3723.05 385.466C3670.79 374.541 3581.25 355.716 3566.77 352.691C3560.5 351.346 3533.4 345.716 3506.63 340.085C3479.86 334.455 3452.76 328.824 3446.49 327.479C3436.32 325.378 3360.51 309.495 3324.09 301.848C3316.64 300.251 3284.28 293.444 3252.09 286.721C3219.99 279.998 3168.49 269.241 3137.74 262.77C3106.99 256.299 3076.33 249.912 3069.55 248.484C3056.85 245.794 2988.91 231.592 2905.22 214.028C2878.88 208.565 2851.86 202.851 2845.08 201.422C2838.31 199.994 2811.29 194.363 2784.94 188.816C2758.6 183.27 2731.58 177.639 2724.8 176.211C2712.18 173.522 2644.5 159.403 2560.47 141.755C2534.13 136.293 2507.11 130.578 2500.33 129.149C2493.56 127.721 2466.54 122.09 2440.19 116.544C2413.85 110.997 2386.83 105.367 2380.05 103.938C2367.43 101.249 2299.75 87.1303 2215.72 69.4823C2189.38 64.0198 2162.36 58.3052 2155.58 56.8766C2148.81 55.4479 2121.79 49.8174 2095.44 44.2709C2069.1 38.7243 2042.08 33.0938 2035.3 31.6651C1907.4 4.6889 1896.13 2.41987 1883.26 1.07526C1871.4 -0.185317 1852.68 -0.353393 1841.5 0.655065Z" fill="#21B76F"/>
</svg>
